PathFileType	4	(X/Y/Z)	C:/Users/opensim2020/Desktop/walking_exp_matlab/subject02_walking15_straight_01.trc																																																																																																																												
DataRate	CameraRate	NumFrames	NumMarkers	Units	OrigDataRate	OrigDataStartFrame	OrigNumFrames																																																																																																																								
100	100	4	42	mm	100	532	165																																																																																																																								
Frame#	Time	LFHD			RFHD			LBHD			RBHD			C7			T10			CLAV			STRN			RBAK			LSHO			LUPA			LELB			LFRM			LWRA			LWRB			LFIN			RSHO			RUPA			RELB			RFRM			RWRA			RWRB			RFIN			LASI			RASI			LPSI			RPSI			LTHI			LKNE			LTIB			LANK			LHEE			LTOE			RTHI			RKNE			RTIB			RANK			RHEE			RTOE			*39			*40			*41		
		X1	Y1	Z1	X2	Y2	Z2	X3	Y3	Z3	X4	Y4	Z4	X5	Y5	Z5	X6	Y6	Z6	X7	Y7	Z7	X8	Y8	Z8	X9	Y9	Z9	X10	Y10	Z10	X11	Y11	Z11	X12	Y12	Z12	X13	Y13	Z13	X14	Y14	Z14	X15	Y15	Z15	X16	Y16	Z16	X17	Y17	Z17	X18	Y18	Z18	X19	Y19	Z19	X20	Y20	Z20	X21	Y21	Z21	X22	Y22	Z22	X23	Y23	Z23	X24	Y24	Z24	X25	Y25	Z25	X26	Y26	Z26	X27	Y27	Z27	X28	Y28	Z28	X29	Y29	Z29	X30	Y30	Z30	X31	Y31	Z31	X32	Y32	Z32	X33	Y33	Z33	X34	Y34	Z34	X35	Y35	Z35	X36	Y36	Z36	X37	Y37	Z37	X38	Y38	Z38	X39	Y39	Z39	X40	Y40	Z40	X41	Y41	Z41	X42	Y42	Z42
																																																																																																																															
145	1.44	482.66147	1712.51575	1426.77551	496.93375	1698.98108	1569.48755	350.6261	1640.0116	1434.44702	351.90216	1625.65698	1577.00085	304.53583	1494.40881	1511.49744	270.18417	1217.16138	1534.17822	449.28558	1434.15808	1490.49292	513.23358	1268.29077	1509.34558	261.79947	1320.49158	1589.0127	359.92972	1460.44275	1328.86951	275.5321	1274.16455	1269.99194	220.79863	1148.62793	1277.09558	158.42578	1036.4978	1265.85681	141.27298	894.33771	1284.14331	99.89584	927.16254	1263.50525	70.65316	865.39191	1267.69702	390.94162	1481.0376	1689.29797	394.9389	1300.66931	1795.19031	447.65973	1165.73669	1835.07568	542.82733	1087.37427	1839.3595	655.0636	1023.1839	1804.49402	626.30927	987.95026	1838.84253	695.62091	973.16632	1838.39355	508.02448	972.48773	1403.44556	508.52118	948.93689	1658.45398	296.71323	1004.23486	1480.60608	292.50482	1003.23273	1593.44861	523.73334	672.88251	1332.34705	563.15125	476.76151	1371.31445	555.91125	282.61716	1374.91357	607.7019	69.34743	1409.11389	583.07867	42.84352	1467.38379	759.58923	46.55523	1375.06897	351.77136	663.87012	1737.76733	290.84442	463.59036	1723.43274	153.00119	333.02509	1733.65369	33.01564	178.61884	1711.76892	-19.10769	154.08606	1655.12683	119.50001	35.59051	1715.56506	391.64804	1782.85754	1523.65466	2846.12573	1034.27124	-3356.99658	NaN	NaN	NaN
146	1.45	495.78558	1713.41602	1422.4613	510.15552	1700.16455	1565.16357	363.63034	1641.67883	1430.53552	364.85934	1627.41089	1572.94214	317.47189	1495.62195	1507.328	284.37164	1217.92529	1530.5863	462.07452	1435.85645	1486.49377	526.96375	1270.37341	1504.9364	275.34592	1321.14709	1585.47156	372.82822	1461.32666	1324.79993	290.87894	1273.71521	1265.73596	236.36099	1147.88647	1273.00842	175.41286	1034.79248	1261.69543	159.00977	892.92926	1282.32019	117.87885	924.87567	1259.80627	89.35948	862.61523	1265.33899	403.55084	1481.89148	1685.79041	406.54874	1300.88708	1790.95837	458.42929	1165.7146	1830.828	553.71875	1087.52551	1835.11682	666.15021	1023.78583	1800.33496	637.50165	988.44946	1834.58472	706.62146	973.71851	1834.01123	522.5199	973.06677	1398.28247	524.32568	949.42792	1652.12646	311.80548	1006.52008	1476.37891	308.27219	1004.59662	1590.76794	532.46869	672.22363	1329.93298	576.82654	478.56616	1369.39355	566.45343	285.04742	1370.14514	608.94617	70.70216	1409.64258	584.08698	43.59535	1467.50244	760.94928	44.2977	1375.21204	370.32632	663.6272	1735.01111	313.31335	462.88785	1722.97192	171.94774	336.67279	1733.46289	47.94112	186.40216	1711.0321	-3.47762	165.48225	1653.23059	121.40607	35.76469	1714.50366	405.21027	1784.43701	1519.33154	2846.20117	1034.27307	-3357.23682	NaN	NaN	NaN
147	1.46	508.73709	1714.52563	1418.1333	523.29272	1701.51819	1560.84155	376.27426	1643.3717	1426.55627	377.89331	1629.47791	1569.29785	330.30957	1497.21436	1503.73816	298.17221	1218.65308	1526.94739	474.84515	1437.74744	1482.72119	540.60211	1272.55444	1500.54761	288.82291	1321.58569	1581.72791	385.22415	1462.4635	1320.84546	306.37543	1273.32581	1261.55884	252.49785	1147.19226	1268.85815	192.81245	1033.45288	1257.7522	178.17169	891.20636	1279.52942	137.08475	922.29053	1255.73352	109.41091	859.74115	1262.71716	416.49176	1483.07092	1682.57703	417.94366	1301.34485	1786.54663	469.06448	1165.94153	1826.44299	564.23169	1087.57495	1830.77905	676.61407	1023.849	1796.10449	647.72565	988.19507	1829.83728	717.01111	973.66113	1829.69543	536.52979	973.86328	1393.15198	539.49225	950.25177	1645.72144	326.26941	1009.04547	1472.20398	324.00244	1006.20459	1588.14624	542.17139	671.69165	1328.09851	588.54803	479.50183	1367.4397	574.31116	286.45059	1368.61548	610.96204	71.17716	1409.66418	584.77631	43.78962	1467.50439	762.63068	42.79903	1376.11145	389.48663	662.81024	1731.87085	336.7052	461.81769	1722	192.68935	339.88339	1732.68213	65.14885	193.46446	1710.31079	13.86362	176.7104	1651.81433	124.40945	36.11936	1712.98718	418.70627	1786.11084	1514.99438	2846.10181	1034.3606	-3357.2251	NaN	NaN	NaN
148	1.47	521.48468	1715.71216	1413.61328	536.39038	1702.94543	1556.48792	388.78857	1644.80334	1422.5907	390.55173	1631.38208	1565.22302	343.43802	1498.4718	1500.4884	311.91992	1219.93628	1523.9353	487.63354	1439.62512	1478.98291	554.17651	1274.69495	1496.24426	302.33893	1322.58508	1578.57385	397.22147	1463.85083	1317.02588	321.78381	1273.22717	1257.48889	269.25287	1146.40735	1264.58203	211.50537	1031.7428	1253.46423	198.31514	889.57727	1277.44739	157.71194	919.50183	1251.31531	130.91473	856.21832	1259.40369	429.82971	1484.61719	1679.61401	429.46252	1302.23071	1782.33252	479.68549	1166.35681	1821.86829	574.43579	1087.51526	1826.38281	686.66809	1023.46643	1791.92407	657.28107	987.47803	1825.15845	726.72455	972.98608	1825.38379	550.32422	975.0849	1387.92212	554.13062	951.37012	1639.40186	340.20139	1011.68219	1468.29895	339.25858	1007.89258	1585.37036	552.75226	671.63263	1326.04797	598.62408	479.51944	1365.2467	579.53699	287.09525	1368.62842	612.05566	71.20019	1409.86462	585.26404	43.98374	1467.59924	763.3963	42.0294	1376.08765	409.54105	661.94269	1729.04224	360.86307	460.65762	1721.25171	214.72586	342.69217	1731.43591	83.71761	200.41489	1709.54395	31.73646	187.52505	1650.23975	131.59016	39.46331	1710.31555	432.15067	1787.88538	1510.78284	2846.11743	1034.48169	-3357.15894	NaN	NaN	NaN
